<svg xmlns="http://www.w3.org/2000/svg" xmlns:xlink="http://www.w3.org/1999/xlink" width="405" height="291.852" viewBox="0 0 405 291.852">
  <defs>
    <linearGradient id="linear-gradient" x1="0.5" y1="1" x2="0.5" gradientUnits="objectBoundingBox">
      <stop offset="0" stop-color="gray" stop-opacity="0.251"/>
      <stop offset="0.54" stop-color="gray" stop-opacity="0.122"/>
      <stop offset="1" stop-color="gray" stop-opacity="0.102"/>
    </linearGradient>
    <linearGradient id="linear-gradient-2" x1="0.5" y1="1" x2="0.5" y2="0" xlink:href="#linear-gradient"/>
  </defs>
  <g id="Group_6240" data-name="Group 6240" transform="translate(0.001 -0.015)">
    <path id="Path_10714" data-name="Path 10714" d="M292.252,121.528c-25.964-.9-50.712-9.285-74.309-18.454S170.96,83.743,145.6,78.884c-16.3-3.128-34.947-3.569-48.08,5.172C84.883,92.465,80.8,106.981,78.6,120.45c-1.652,10.135-2.61,20.8,1.905,30.289,3.143,6.585,8.722,12.122,12.581,18.432,13.424,21.952,3.934,49.023-10.616,70.475C75.651,249.714,67.734,259.294,62.469,270s-7.7,22.97-3.095,33.888c4.568,10.814,15.449,18.95,27.239,24.666,23.947,11.6,52.163,14.919,79.678,16.821,60.907,4.165,122.142,2.36,183.21.556,22.6-.671,45.3-1.346,67.533-4.848,12.346-1.943,25.1-5.023,34.059-12.458,11.377-9.441,14.2-25.423,6.574-37.262-12.79-19.852-48.151-24.786-57.092-46.092-4.918-11.727.134-24.793,7.286-35.67,15.337-23.331,41.051-43.8,42.4-70.475.932-18.32-11.429-36.662-30.543-45.332-20.031-9.095-47.811-7.946-62.589,7.085C341.917,116.363,315.174,122.322,292.252,121.528Z" transform="translate(-56.94 -70.049)" fill="#6c63ff" opacity="0.1"/>
    <path id="Path_10715" data-name="Path 10715" d="M221.823,676.225S201.314,660.721,197.44,641a38.981,38.981,0,0,0-12.011-21.519,65.629,65.629,0,0,0-9.609-7.159" transform="translate(-131.492 -405.859)" fill="none" stroke="#535461" stroke-miterlimit="10" stroke-width="2"/>
    <path id="Path_10716" data-name="Path 10716" d="M152.479,575.273c1.8,2.431,2.61,12.734,2.61,12.734s-9.609-3.785-11.41-6.212a5.477,5.477,0,1,1,8.8-6.522Z" transform="translate(-110.66 -381.237)" fill="#6c63ff"/>
    <path id="Path_10717" data-name="Path 10717" d="M196.911,592.051c.186,3.017-4.724,12.108-4.724,12.108s-6.015-8.4-6.2-11.422a5.474,5.474,0,1,1,10.926-.686Z" transform="translate(-137.858 -389.93)" fill="#6c63ff"/>
    <path id="Path_10718" data-name="Path 10718" d="M242.434,649.653c-1.357,2.7-10.191,8.069-10.191,8.069s-.943-10.292.414-12.991a5.473,5.473,0,1,1,9.778,4.922Z" transform="translate(-166.676 -424.294)" fill="#6c63ff"/>
    <path id="Path_10719" data-name="Path 10719" d="M265.489,705.857c-.884,2.89-8.681,9.673-8.681,9.673s-2.674-9.982-1.79-12.876a5.475,5.475,0,1,1,10.471,3.2Z" transform="translate(-181.046 -460.079)" fill="#6c63ff"/>
    <path id="Path_10720" data-name="Path 10720" d="M170.818,634.418c2.983.4,12.413-3.856,12.413-3.856s-7.957-6.593-10.955-7a5.474,5.474,0,0,0-1.458,10.851Z" transform="translate(-125.379 -412.881)" fill="#6c63ff"/>
    <path id="Path_10721" data-name="Path 10721" d="M196.087,698.24c2.983-.511,10.691-7.391,10.691-7.391s-9.568-3.908-12.548-3.4a5.474,5.474,0,1,0,1.864,10.788Z" transform="translate(-140.189 -452.947)" fill="#6c63ff"/>
    <path id="Path_10722" data-name="Path 10722" d="M233.388,756.238c3.024,0,11.787-5.478,11.787-5.478s-8.767-5.47-11.791-5.47a5.474,5.474,0,1,0,0,10.948Z" transform="translate(-164.158 -489.247)" fill="#6c63ff"/>
    <path id="Path_10723" data-name="Path 10723" d="M833.49,333.094s12.641-22.392,31.7-28.843a38.978,38.978,0,0,0,19.733-14.763A65.375,65.375,0,0,0,890.732,279" transform="translate(-543.927 -196.829)" fill="none" stroke="#535461" stroke-miterlimit="10" stroke-width="2"/>
    <path id="Path_10724" data-name="Path 10724" d="M998.442,252.187c-2.17,2.1-12.272,4.281-12.272,4.281s2.48-10.031,4.65-12.137a5.474,5.474,0,1,1,7.622,7.857Z" transform="translate(-639.674 -174.118)" fill="#6c63ff"/>
    <path id="Path_10725" data-name="Path 10725" d="M982.52,298.357c-2.983.589-12.63-3.073-12.63-3.073s7.532-7.085,10.5-7.663a5.474,5.474,0,1,1,2.133,10.735Z" transform="translate(-629.465 -202.154)" fill="#6c63ff"/>
    <path id="Path_10726" data-name="Path 10726" d="M932.278,351.5c-2.856-.988-9.348-9.028-9.348-9.028s10.068-2.3,12.932-1.316a5.474,5.474,0,1,1-3.584,10.344Z" transform="translate(-600.016 -235.654)" fill="#6c63ff"/>
    <path id="Path_10727" data-name="Path 10727" d="M878.724,381.406c-2.983-.492-10.724-7.335-10.724-7.335s9.542-3.975,12.522-3.483a5.479,5.479,0,0,1-1.779,10.814Z" transform="translate(-565.568 -254.24)" fill="#6c63ff"/>
    <path id="Path_10728" data-name="Path 10728" d="M947.3,277.938c0,3.024,5.481,11.8,5.481,11.8s5.478-8.763,5.478-11.783a5.474,5.474,0,1,0-10.944,0Z" transform="translate(-615.299 -192.65)" fill="#6c63ff"/>
    <path id="Path_10729" data-name="Path 10729" d="M887.552,311.975c.9,2.886,8.748,9.617,8.748,9.617s2.61-10,1.7-12.887a5.474,5.474,0,0,0-10.441,3.27Z" transform="translate(-577.711 -213.166)" fill="#6c63ff"/>
    <path id="Path_10730" data-name="Path 10730" d="M834.886,356.14c.4,2.983,7,10.952,7,10.952s4.255-9.415,3.852-12.41a5.474,5.474,0,1,0-10.847,1.458Z" transform="translate(-544.759 -241.234)" fill="#6c63ff"/>
    <path id="Path_10731" data-name="Path 10731" d="M998.442,252.187c-2.17,2.1-12.272,4.281-12.272,4.281s2.48-10.031,4.65-12.137a5.474,5.474,0,1,1,7.622,7.857Z" transform="translate(-639.674 -174.118)" opacity="0.25"/>
    <path id="Path_10732" data-name="Path 10732" d="M982.52,298.357c-2.983.589-12.63-3.073-12.63-3.073s7.532-7.085,10.5-7.663a5.474,5.474,0,1,1,2.133,10.735Z" transform="translate(-629.465 -202.154)" opacity="0.25"/>
    <path id="Path_10733" data-name="Path 10733" d="M932.278,351.5c-2.856-.988-9.348-9.028-9.348-9.028s10.068-2.3,12.932-1.316a5.474,5.474,0,1,1-3.584,10.344Z" transform="translate(-600.016 -235.654)" opacity="0.25"/>
    <path id="Path_10734" data-name="Path 10734" d="M878.724,381.406c-2.983-.492-10.724-7.335-10.724-7.335s9.542-3.975,12.522-3.483a5.479,5.479,0,0,1-1.779,10.814Z" transform="translate(-565.568 -254.24)" opacity="0.25"/>
    <path id="Path_10735" data-name="Path 10735" d="M947.3,277.938c0,3.024,5.481,11.8,5.481,11.8s5.478-8.763,5.478-11.783a5.474,5.474,0,1,0-10.944,0Z" transform="translate(-615.299 -192.65)" opacity="0.25"/>
    <path id="Path_10736" data-name="Path 10736" d="M887.552,311.975c.9,2.886,8.748,9.617,8.748,9.617s2.61-10,1.7-12.887a5.474,5.474,0,0,0-10.441,3.27Z" transform="translate(-577.711 -213.166)" opacity="0.25"/>
    <path id="Path_10737" data-name="Path 10737" d="M834.886,356.14c.4,2.983,7,10.952,7,10.952s4.255-9.415,3.852-12.41a5.474,5.474,0,1,0-10.847,1.458Z" transform="translate(-544.759 -241.234)" opacity="0.25"/>
    <path id="Path_10738" data-name="Path 10738" d="M835.44,300.731s2.483-25.595,17.272-39.205a38.992,38.992,0,0,0,12.059-21.493,65.353,65.353,0,0,0,1.078-11.932" transform="translate(-545.15 -164.909)" fill="none" stroke="#535461" stroke-miterlimit="10" stroke-width="2"/>
    <path id="Path_10739" data-name="Path 10739" d="M924.146,192.3c-1.119,2.8-9.486,8.89-9.486,8.89s-1.8-10.176-.667-12.98a5.475,5.475,0,1,1,10.154,4.1Z" transform="translate(-594.177 -137.744)" fill="#6c63ff"/>
    <path id="Path_10740" data-name="Path 10740" d="M926.05,238.767c-2.472,1.738-12.79,2.308-12.79,2.308s4.02-9.523,6.492-11.261a5.474,5.474,0,1,1,6.3,8.949Z" transform="translate(-593.952 -165.3)" fill="#6c63ff"/>
    <path id="Path_10741" data-name="Path 10741" d="M897.368,308.045c-3.013.254-12.208-4.475-12.208-4.475s8.278-6.19,11.291-6.443a5.475,5.475,0,0,1,.917,10.911Z" transform="translate(-576.33 -208.185)" fill="#6c63ff"/>
    <path id="Path_10742" data-name="Path 10742" d="M861.886,356.81c-2.927.746-12.786-2.338-12.786-2.338s7.111-7.5,10.038-8.259a5.474,5.474,0,0,1,2.748,10.6Z" transform="translate(-553.716 -238.869)" fill="#6c63ff"/>
    <path id="Path_10743" data-name="Path 10743" d="M883.386,239.066c1.223,2.763,9.777,8.576,9.777,8.576s1.454-10.232.231-13a5.474,5.474,0,0,0-10.008,4.43Z" transform="translate(-574.955 -167.045)" fill="#6c63ff"/>
    <path id="Path_10744" data-name="Path 10744" d="M842.161,293.72c1.995,2.271,11.891,5.246,11.891,5.246s-1.671-10.2-3.665-12.469a5.474,5.474,0,1,0-8.226,7.223Z" transform="translate(-548.511 -200.363)" fill="#6c63ff"/>
    <path id="Path_10745" data-name="Path 10745" d="M812.367,356.128c1.581,2.573,10.832,7.178,10.832,7.178s.078-10.333-1.492-12.909a5.474,5.474,0,0,0-9.322,5.731Z" transform="translate(-530.235 -240.055)" fill="#6c63ff"/>
    <path id="Path_10746" data-name="Path 10746" d="M784.44,142.544c.619-2.271,1.365-4.553,1.887-6.854C785.7,137.991,784.951,140.28,784.44,142.544Z" transform="translate(-513.167 -106.957)" fill="url(#linear-gradient)"/>
    <path id="Path_10747" data-name="Path 10747" d="M446.347,116.12c-.052-.09-.089-.179-.13-.261h0c0-.037-.037-.067-.052-.1a2.34,2.34,0,0,1-.25.1c-.164.063-.332.123-.5.172s-.242.075-.373.1a2.172,2.172,0,0,1-.332.086l.03.067c.138-.03.272-.056.41-.093l.037.462c.157,0,.3-.022.444-.022a1.831,1.831,0,0,1,.2,0h.746C446.5,116.463,446.415,116.287,446.347,116.12Zm75.7,120.49c-1.753-2.36-5.25-27.694-5.25-27.694s-6.88-18.014-5-25.2-5.123-25.584-5.123-25.584-4.624-2.01-4.874-4.993c0,0-18.879-5.966-19.763-10.441-.716-3.669-12.425-6.3-16.631-7.133-1.283-5.176-2.573-10-3.524-12.641-.257-.82-.5-1.529-.723-2.088-1.607-4.1-6.574-4.475-10.176-4.146a5.548,5.548,0,0,0-.854-1.95,1.07,1.07,0,0,0-.339-.518,1.987,1.987,0,0,0-.246-.179,1.178,1.178,0,0,0-.254-.321,1.794,1.794,0,0,0-.336-.239,2.239,2.239,0,0,0-.268-.123,3.585,3.585,0,0,0-.668-.183,5.5,5.5,0,0,0-.805-.1,4.9,4.9,0,0,0,1.719-1.257,3.584,3.584,0,0,0,.7-1.3,3.818,3.818,0,0,0,.157-1.223,3.164,3.164,0,0,1-.336.481c.157-1.652-.716-3.33-1.216-4.974a14.717,14.717,0,0,1-.328-6.581h0c.5-3.3,1.738-6.645,2.577-10.008a.245.245,0,0,0,0-.056,25.986,25.986,0,0,0,.813-5.1,22.527,22.527,0,0,0-2.178-10.12c-1.272-2.808-3.147-5.571-6.018-6.712-2.133-.861-4.523-.723-6.82-.865-5.153-.321-10.068-2.133-14.968-3.781s-9.941-3.147-15.1-2.86-10.463,2.774-12.816,7.338a45.966,45.966,0,0,1-2.066,4.348c-1.671,2.524-4.661,3.789-7.156,5.53a14.151,14.151,0,0,0-5.593,7.163,9.558,9.558,0,0,0-.2,4.9h0a8.78,8.78,0,0,0,.313,1.081,7.663,7.663,0,0,0,1.622,2.651,7.908,7.908,0,0,0,1.842,1.428h0a10.841,10.841,0,0,0,2.722,1.059c-.034.112-.067.231-.1.347-.06.19-.112.373-.168.578-.123.459-.239.925-.336,1.395a.436.436,0,0,0,0,.1,30.455,30.455,0,0,0-.686,6.455,29.8,29.8,0,0,0,.157,3.073h0A31.081,31.081,0,0,0,413.161,134c.529.026,1.063.041,1.6.041h.746c.242.321.481.649.708.969s.436.649.634.969l-.541-.559h0l-.541-.5a4.394,4.394,0,0,1-.488.563,9.07,9.07,0,0,0-1.078-.306h0a13.818,13.818,0,0,0-7.007.466A30.643,30.643,0,0,0,396.78,141.6L376.9,153.531l-10.754,6.54-3.874,9.471s-2.912,11.254-6.153,24.148c-.127.037-.25.075-.373.119a6.975,6.975,0,0,0-.791-.045,7.268,7.268,0,0,0-7.279,6.977c-6.443,7.831-6.809,15.661-5.295,19.256h0a5.13,5.13,0,0,0,.515.958,90.514,90.514,0,0,1,4.724,9.057c-.048.324-.078.6-.093.8a1.978,1.978,0,0,0,0,.2s1.119,16.9-2.61,21.739c-.817,1.055-.694,2.442,0,3.979h0c2.5,5.526,12.376,12.906,12.376,12.906s11.847-.063,18.447-.783c-.019.664-.034,1.324-.048,1.969-.149,6.518-.149,11.981-.149,11.981l-.246,6.835s-2.237,14.4-3.356,18.376c-.7,2.491.108,25.554.817,42.509H489.479c1.372-10.031-.563-40.507-.563-40.507a80.071,80.071,0,0,1-1.905-14.748.056.056,0,0,1,0-.048c0-.6,0-1.186.022-1.76l.846-.03,1.521-.052h.138s.037-.142.123-.373h0a7.127,7.127,0,0,1,.817-1.629,4.042,4.042,0,0,1,3.188-1.961,8.635,8.635,0,0,0,3.621-1.723.067.067,0,0,0,.03,0c3.964-2.681,9.2-7.629,10.474-8.442,1.749-1.119,10.124-8.576,10.124-8.576s1.249-1.581,2.58-3.486l.048-.067c1.656-2.386,3.416-5.239,2.983-6.138-.746-1.611.5-5.463.5-5.463C527.916,248.4,523.8,238.97,522.043,236.61Zm-72.1-114.692a1.492,1.492,0,0,1,.067.343c-.093-.123-.186-.254-.28-.373l-.089-.119-.063-.09.142-.194v.026h0a1.294,1.294,0,0,1,.224.406Zm-1.253-3.3c-.406.082-.727.157-.936.213-.265-.47-.518-.94-.746-1.417a10.812,10.812,0,0,1,1.682,1.2Zm-.7.589a.079.079,0,0,1,0-.022l.03.022h0c.153.1.3.2.44.3h0c.123.089.235.175.347.265a3.574,3.574,0,0,1-.239.373c-.131-.205-.254-.4-.373-.608A1.342,1.342,0,0,1,447.984,119.2Zm-2.237-4.6a11.031,11.031,0,0,1,2.166,0h0a1.639,1.639,0,0,1,.28.034h0a3.1,3.1,0,0,1,.593.153,4.333,4.333,0,0,1,.787,2.092l-.2.03-.2.037c-.373.063-.746.127-1.037.186l-.373.078c-.5.108-.783.19-.794.194-.048-.1-.1-.194-.149-.291-.082-.16-.168-.324-.242-.485s-.172-.343-.25-.511c-.052-.089-.089-.179-.13-.261h0c0-.037-.037-.067-.052-.1a.894.894,0,0,1-.056-.123c-.227-.462-.436-.925-.638-1.38-.022-.045-.041-.093-.06-.138l.283-.019v.1ZM356.78,345.918a92.5,92.5,0,0,0-1.551-17.2c-.477-2.4-.97-4.8-1.469-7.152-.127-.589-.25-1.171-.373-1.753l-1.148.153h-.1c-3.132-14.77-6.406-27.784-6.406-27.784s-6.5-24.83-5.75-26.81a4.8,4.8,0,0,0-.3-1.969c-1.574-5.646-8.144-21.2-10.441-26.52h0a.21.21,0,0,0-.026-.067h0c-.373-.891-.641-1.492-.723-1.667l.541-7.935.03-.477.071-1.014-.03-.026.03-.47a54.4,54.4,0,0,0-15.288-8.013c-.373-.134-.768-.265-1.16-.392.481-3.211,1.119-6.835,1.95-10.366.078-.354.164-.7.254-1.044h0c.078-.347.168-.682.257-1.022.142-.552.295-1.1.451-1.633.518-.164,1.029-.347,1.533-.541l.194-.075a27.519,27.519,0,0,0,16.78-32.068h0a27.366,27.366,0,0,0-4.8-10.124h0c-.172-.231-.354-.462-.537-.69s-.4-.481-.608-.712c1.078-2.45,2.349-4.78,2.454-7.163a7.339,7.339,0,0,0,0-.906h0v-.037a7.659,7.659,0,0,0-2.4-4.713,16.029,16.029,0,0,0-8.878-4.184c-3.285-.582-6.634-.6-9.937-.988-5.478-.656-10.814-2.345-16.291-2.864a38.709,38.709,0,0,0-19.7,3.356c-4.076,1.864-8.2,5.123-8.45,9.594-.2,3.7,2.372,7.238,1.723,10.888-.645,3.587-4.3,6.41-3.979,10.038a7.2,7.2,0,0,0,1.76,3.815h0c.313.373.645.746.988,1.119a16.135,16.135,0,0,1,3.531,4.527c.03.075.06.149.086.224.63,1.749.347,3.96-1.212,4.963a.056.056,0,0,1,.019.026h0c.022.03.045.052.063.082a.026.026,0,0,0,0-.019,4.079,4.079,0,0,0,2.129,1.327l.317.1c-.257.28-.5.571-.746.876l-.16.213a15.529,15.529,0,0,0-1.119,1.734c-.19.336-.373.671-.526,1.007a12.649,12.649,0,0,0-1.1,3.233c-.4,2.468.164,5.041-.44,7.458-.746,2.983-3.106,5.273-4.437,8.043-2.521,5.22-1.093,11.347-.585,17.112.69,7.831-.429,15.695-1.544,23.473q-.887,6.2-1.775,12.421l-4.475,31.2c-.544,3.811-1.189,7.831-3.729,10.773h.026a.033.033,0,0,1-.026.03,7.792,7.792,0,0,0,2.4.619h0c3.315.332,6.828-1.272,9.811-3.024a46.365,46.365,0,0,0,6.686-4.695q-.459,1.678-.984,3.651a.206.206,0,0,1,0,.037h0c-4.21,16.034-10.982,45.429-10.982,45.429s-.615,1.279-1.413,3.184H360.412c-1.231-1.492-2.375-2.92-3.27-4.072ZM278.922,197.659c.026-.045.045-.086.071-.127v.809h0a2.757,2.757,0,0,1-.06.459v.034l.373.138.433.179h0q3.833,1.514,7.763,2.741c.268.086.541.168.813.246l.056.462c.067.474.131.955.19,1.436v.037c.168,1.331.332,2.659.477,3.956,0,0-6.846-2.61-6.76,1.354a1.936,1.936,0,0,0,0,.213,1.772,1.772,0,0,0,0,.283,19.76,19.76,0,0,0,1.223,5.858.265.265,0,0,1-.06.1,2.04,2.04,0,0,0-.164,1.152,11.329,11.329,0,0,0,.157,1.991c-.2.123-.4.246-.6.373h0c-.149.093-.291.2-.436.3a55.372,55.372,0,0,0-3.576-9.218c-1.025-2.111-2.178-4.311-2.166-6.626a3.743,3.743,0,0,1,.019-.455,7.829,7.829,0,0,1,.38-1.973c.086-.242.179-.481.283-.716a17.563,17.563,0,0,1,.817-1.633h0c.194-.351.4-.7.6-1.048.063-.1.123-.213.183-.317ZM446.347,116.12c-.052-.09-.089-.179-.13-.261h0c0-.037-.037-.067-.052-.1a2.34,2.34,0,0,1-.25.1c-.164.063-.332.123-.5.172s-.242.075-.373.1l-.332.086.03.067c.138-.03.272-.056.41-.093l.037.462c.157,0,.3-.022.444-.022h.947C446.5,116.463,446.415,116.287,446.347,116.12Z" transform="translate(-177.848 -58.66)" fill="url(#linear-gradient-2)"/>
    <path id="Path_10748" data-name="Path 10748" d="M530.211,356.274l-2.237.988S513.39,413.918,513.39,418.5s30.923,30.058,30.923,30.058l4.825-32.568S542.21,341.3,530.211,356.274Z" transform="translate(-343.187 -244.045)" fill="#e8f5ff"/>
    <path id="Path_10749" data-name="Path 10749" d="M697.943,236.666l-12.92-6.742a25.882,25.882,0,0,0-3.789-8.632,19.232,19.232,0,0,0-7.536-6.809c-7.916-3.55,33.485-22.183,33.485-22.183a67.354,67.354,0,0,0,2.3,6.6c2.133,5.265,5.672,12.074,10.232,14.013C727.468,216.213,697.943,236.666,697.943,236.666Z" transform="translate(-443.088 -142.458)" fill="#ffc1c7"/>
    <path id="Path_10750" data-name="Path 10750" d="M709.484,198.9a30.868,30.868,0,0,1-28.25,22.392,19.231,19.231,0,0,0-7.536-6.809c-7.916-3.55,33.485-22.183,33.485-22.183a67.337,67.337,0,0,0,2.3,6.6Z" transform="translate(-443.088 -142.458)" opacity="0.1"/>
    <path id="Path_10751" data-name="Path 10751" d="M670.718,132.9a30.7,30.7,0,1,1-8.994-21.85A30.85,30.85,0,0,1,670.718,132.9Z" transform="translate(-403.158 -85.867)" fill="#ffc1c7"/>
    <path id="Path_10752" data-name="Path 10752" d="M651.254,232.568,642.841,252.2l-7.42,13.029H611.668l-6.928-17.813,2.808-18.473h18.141l11.712-.66,3.956-1.32,2.551,1.447Z" transform="translate(-379.242 -142.321)" fill="#575a89"/>
    <path id="Path_10753" data-name="Path 10753" d="M744.41,230.467s5.247,1.119.548,4.971-20.908,16.1-20.908,16.1,5.694,5.071,4.516,11.011l18.864-10.515,3.356-16.825S751.163,230.153,744.41,230.467Z" transform="translate(-475.295 -166.384)" opacity="0.1"/>
    <path id="Path_10754" data-name="Path 10754" d="M707.511,287l-12,1.98s2.476,9.154,1.238,11.753a1.736,1.736,0,0,0-.093.25l-4.9,13.234,3.669,10.392,12.7-17.32-4.329-6.555s4.575-6.063,7.3-8.166S707.511,287,707.511,287Z" transform="translate(-455.046 -201.846)" opacity="0.1"/>
    <path id="Path_10755" data-name="Path 10755" d="M707.511,285.63l-12,1.976s2.476,9.154,1.238,11.753a1.738,1.738,0,0,0-.093.25l-4.9,13.234,3.669,10.392,12.7-17.332-4.329-6.555s4.575-6.063,7.3-8.166S707.511,285.63,707.511,285.63Z" transform="translate(-455.046 -200.987)" fill="#dce6f2"/>
    <path id="Path_10756" data-name="Path 10756" d="M744.913,227.817s5.246,1.119.544,4.971-21.407,17.089-21.407,17.089,6.186,4.083,5.012,10.019l18.864-10.512,3.356-16.825S751.655,227.5,744.913,227.817Z" transform="translate(-475.295 -164.723)" fill="#575a89"/>
    <path id="Path_10757" data-name="Path 10757" d="M674.525,273.18s1.145,2.14,6.2,6c0,0-8.412,4.475-5.194,10.765l-12.868-3.356-1.98-6.186Z" transform="translate(-435.555 -193.179)" opacity="0.1"/>
    <path id="Path_10758" data-name="Path 10758" d="M673.2,271.86s1.145,2.14,6.2,6c0,0-8.412,4.452-5.194,10.762l-12.865-3.356-1.98-6.182Z" transform="translate(-434.727 -192.352)" fill="#575a89"/>
    <path id="Path_10759" data-name="Path 10759" d="M708.194,293.661l-8.412,19.629-7.406,13.029H668.608l-6.928-17.813,2.8-18.473h5.045c-.082,4.311,1.492,9.374,1.391,11.257-.172,3.095,4.616,19.793,4.616,19.793s10.019-16.206,13.976-17.649c2.487-.906,7.756-8.446,11.332-13.935Z" transform="translate(-436.182 -203.414)" opacity="0.1"/>
    <path id="Path_10760" data-name="Path 10760" d="M672.907,384.562l-.854,1.074s6.186,31.05,4.475,38.1a20.02,20.02,0,0,0-.5,3.871v.056c-.3,7.174,1.864,16.485,1.864,16.485s1.73,27.444.746,38.732H562.817c-.679-16.69-1.41-38.314-.746-40.712,1.119-3.956,3.356-18.309,3.356-18.309l.246-6.8s0-6.574.2-13.9c.086-3.293.213-6.749.4-9.814a51.809,51.809,0,0,1,1.014-8.7,19.185,19.185,0,0,0,.477-3.684,1.908,1.908,0,0,1,.022-.354c0-.373.037-.776.052-1.19v-.373c.071-2.4.045-5.25-.034-8.2v-.488c-.063-2.215-.157-4.475-.261-6.622-.324-6.712-.746-12.387-.746-12.387L552.57,304.212l3.833-9.441,10.638-6.518,19.67-11.876c9.594-7.887,15.911-6.939,18.32-6.074a6.376,6.376,0,0,1,.686.28c.075.037.134.067.19.1a1.577,1.577,0,0,1,.22.127h0a4.542,4.542,0,0,0-1.67,1.376,6.086,6.086,0,0,0-1.033,2.237,10.419,10.419,0,0,0-.265,1.525c-.048.541-.067,1.1-.067,1.663a28.835,28.835,0,0,0,.317,3.688c0,.022,0,.052,0,.082.123.873.276,1.726.425,2.528a.177.177,0,0,0,0,.041c.172.936.343,1.8.459,2.547.022.134.041.257.06.373a8.521,8.521,0,0,1,.116,1.492,18.13,18.13,0,0,0,.485,3.58c.1.492.209,1.018.332,1.566.168.746.351,1.559.548,2.386.108.455.224.925.343,1.391.045.186.093.373.138.563l.075.295c.794,3.158,1.656,6.3,2.185,8.2.313,1.119.511,1.809.511,1.809a139.225,139.225,0,0,1,10.1-14.248c.067-.075.127-.145.19-.213.444-.511.88-.977,1.3-1.387a7.665,7.665,0,0,1,2.394-1.8,2.612,2.612,0,0,0,.406-.19c1.835-1.04,4.8-4.818,7.566-8.774.272-.373.537-.779.805-1.163.615-.887,1.212-1.779,1.775-2.633.433-.653.846-1.286,1.238-1.891,1.864-2.9,3.177-5.064,3.177-5.064l2.588-.116.451-.022h.3l11.75-.544s.507.086,1.342.254a.239.239,0,0,1,.138.03c4.169.828,15.751,3.449,16.459,7.085.865,4.452,19.547,10.392,19.547,10.392.246,2.983,4.821,4.948,4.821,4.948s6.928,18.309,5.075,25.483c-1.831,7.085,4.766,24.61,4.941,25.1h0l-1.264,1.6Z" transform="translate(-367.757 -191.021)" fill="#e8f5ff"/>
    <path id="Path_10761" data-name="Path 10761" d="M752.232,225.675s11.436-3.244,14.035,3.434,8.412,33.649,8.412,33.649-15.094,2.845-19.051,0a11.4,11.4,0,0,0-8.043-2.1l-8.535,5.813-2.521-.746s13.655-20.3,16.623-27.2S757.124,228.543,752.232,225.675Z" transform="translate(-483.122 -162.894)" opacity="0.1"/>
    <path id="Path_10762" data-name="Path 10762" d="M750.927,221.675s11.444-3.244,14.054,3.434,8.412,33.649,8.412,33.649-15.091,2.845-19.051,0a11.388,11.388,0,0,0-8.039-2.1l-8.543,5.813-2.521-.746s13.655-20.3,16.623-27.2S755.82,224.55,750.927,221.675Z" transform="translate(-482.313 -160.386)" fill="#e8f5ff"/>
    <path id="Path_10763" data-name="Path 10763" d="M571.216,511.55s8.535,2.1,10.146,6.928-6.309,4.948-6.309,4.948S570.227,514.891,571.216,511.55Z" transform="translate(-379.367 -342.665)" opacity="0.1"/>
    <path id="Path_10764" data-name="Path 10764" d="M628.443,607.09s-20.9,42.8-16.079,46.887S628.443,607.09,628.443,607.09Z" transform="translate(-404.802 -402.579)" opacity="0.1"/>
    <path id="Path_10765" data-name="Path 10765" d="M734,522.5s16.7,41.577,13.36,48,7.174,0,7.174,0Z" transform="translate(-481.535 -349.532)" opacity="0.1"/>
    <path id="Path_10766" data-name="Path 10766" d="M724.115,632.64s-56.41,2.722-39.955,20.289,50.224.746,50.224.746Z" transform="translate(-448.393 -418.602)" fill="#ffc1c7"/>
    <path id="Path_10767" data-name="Path 10767" d="M672.455,132.908a30.705,30.705,0,0,1-2.338,11.791c-.518.06-1.037.1-1.536.119-.746-1.637-.347-3.527-.332-5.329s-.649-3.919-2.383-4.4c-3.457-.973-5.843,5.489-9.251,4.322-2.61-.887-1.928-4.848-3.431-7.133-1.189-1.808-3.572-2.319-5.425-3.453-3.941-2.42-3.822-6.291-5.653-9.952-1.917-3.837-5.966-2.7-9.482-.44-2.67,1.723-4.974,4.031-7.831,5.4a19.371,19.371,0,0,1-7.991,1.689,17.559,17.559,0,0,1-5.012-.529,30.849,30.849,0,0,1,60.661,7.916Z" transform="translate(-404.895 -85.874)" opacity="0.1"/>
    <path id="Path_10768" data-name="Path 10768" d="M621.906,94.885c-2.674,1.723-4.974,4.027-7.831,5.407a19.427,19.427,0,0,1-7.991,1.685c-3.356.075-6.969-.515-9.262-2.938a8.935,8.935,0,0,1-1.719-8.614,13.99,13.99,0,0,1,5.537-7.133c2.509-1.764,5.422-2.983,7.085-5.508a44.519,44.519,0,0,0,2.036-4.329c2.338-4.545,7.6-7.007,12.678-7.312s10.12,1.208,14.96,2.849,9.717,3.445,14.826,3.785c2.275.142,4.639,0,6.749.861,2.838,1.152,4.7,3.908,5.966,6.712A22.439,22.439,0,0,1,667.1,90.418c-.313,7.372-5.183,14.606-3.043,21.668.567,1.883,1.63,3.815,1.063,5.7-.828,2.748-4.374,3.375-7.241,3.505-.746-1.637-.347-3.531-.332-5.329s-.649-3.919-2.379-4.4c-3.46-.966-5.847,5.485-9.248,4.322-2.592-.891-1.92-4.848-3.427-7.133-1.189-1.812-3.576-2.319-5.425-3.453-3.941-2.42-3.822-6.291-5.653-9.952C629.479,91.485,625.426,92.618,621.906,94.885Z" transform="translate(-394.167 -63.319)" fill="#99607e"/>
    <path id="Path_10769" data-name="Path 10769" d="M510.876,514.652l-2.845.992s1.119,16.825-2.61,21.65,12.246,16.821,12.246,16.821,21.9-.123,22.515-1.864-1.119-31.173-1.119-31.173S527.309,516.5,528.3,509.2c0,0-3.587,17.194-8.9,16.452S508.039,520.469,510.876,514.652Z" transform="translate(-337.836 -341.191)" fill="#e8f5ff"/>
    <ellipse id="Ellipse_1253" data-name="Ellipse 1253" cx="7.506" cy="6.865" rx="7.506" ry="6.865" transform="translate(175.024 175.937)" opacity="0.1"/>
    <path id="Path_10770" data-name="Path 10770" d="M524.128,463.17s-1.492-45.522-14.475-35.379-13.111,22.272-10.638,25.856,10.4,21.523,10.4,21.523h0a9.072,9.072,0,0,0,13.424-5.966Z" transform="translate(-333.39 -289.214)" fill="#ffc1c7"/>
    <path id="Path_10771" data-name="Path 10771" d="M615.961,213.921a1.1,1.1,0,0,0-.336-.515c-.641-.585-2.021-.791-4.1-.612l.086.984c2.774-.239,3.322.313,3.393.406v.093l.086.123a4.162,4.162,0,0,1,.746,3.281c-.608,3.039-4.34,5.459-4.378,5.485l-.089.052-.056.086c-1.611,2.39-10.72,9.136-13.1,10.881l-.209-.239c-1.066.925-10.441,9.132-10.948,12.275-.328,1.973-2.551,2.737-3.356,2.95a21.071,21.071,0,0,1-5.045-5.3c-1.346-2.316,4.072-6.835,4.549-8.6l-.746-.764c-.078.283-7.036,6.787-5.1,10.109a22.136,22.136,0,0,0,5.377,5.7c-.317,2.879-2.289,19.782-5.321,23.786-3.766,4.978-6.932,30.066-6.581,38.825.31,7.782-1.723,22.481-8.509,28.794a10.877,10.877,0,0,1-8.975,2.983h-.164a26.484,26.484,0,0,1-18.212-5.966c-6.768-5.694-10.6-14.986-11.4-27.627H523.4l-.067-3.68a7.178,7.178,0,1,0-1.07.086h.082l.067,3.658-.328.022c.82,13.051,4.848,22.7,11.932,28.667a27.594,27.594,0,0,0,19.245,6.3,13.853,13.853,0,0,0,1.492.082,12.23,12.23,0,0,0,8.576-3.449c7.148-6.656,9.322-21.9,8.983-29.943-.373-9.281,2.95-33.466,6.283-37.87,3.266-4.322,5.247-21.161,5.593-24.424,1.182-.332,3.856-1.38,4.311-4.1.328-1.969,6.589-8.036,10.441-11.4l-.116-.134a145.121,145.121,0,0,0,11.716-9.352c.992-.951,1.976-1.9,3.005-2.808a9.622,9.622,0,0,0,3.225-4.9A5.09,5.09,0,0,0,615.961,213.921Z" transform="translate(-344.229 -155.272)" opacity="0.1"/>
    <path id="Path_10772" data-name="Path 10772" d="M686,285.871a22.818,22.818,0,0,1-5.731-5.966c-1.932-3.322,5.026-9.822,5.1-10.105l.746.764c-.474,1.76-5.892,6.283-4.545,8.6a21.673,21.673,0,0,0,5.306,5.5Z" transform="translate(-447.628 -191.06)" fill="#353146"/>
    <path id="Path_10773" data-name="Path 10773" d="M735.782,234.076l-.582-.8c.119-.086,11.832-8.558,13.677-11.3l.06-.082.086-.056c.037-.026,3.77-2.442,4.378-5.485a4.135,4.135,0,0,0-.746-3.278l-.086-.127v-.089c-.075-.1-.623-.645-3.4-.406l-.086-.988c2.084-.179,3.46.026,4.1.612a1.118,1.118,0,0,1,.339.518,5.093,5.093,0,0,1,.843,3.956,9.567,9.567,0,0,1-3.225,4.9c-1.025.906-2.014,1.864-3,2.808A156.668,156.668,0,0,1,735.782,234.076Z" transform="translate(-482.288 -154.438)" fill="#e8f5ff"/>
    <rect id="Rectangle_3633" data-name="Rectangle 3633" width="0.988" height="6.007" transform="translate(177.637 150.882) rotate(-1.05)" fill="#e8f5ff"/>
    <circle id="Ellipse_1254" data-name="Ellipse 1254" cx="7.215" cy="7.215" r="7.215" transform="translate(170.341 137.343)" fill="#6c63ff"/>
    <circle id="Ellipse_1255" data-name="Ellipse 1255" cx="5.992" cy="5.992" r="5.992" transform="translate(171.564 138.566)" fill="#e8f5ff"/>
    <path id="Path_10774" data-name="Path 10774" d="M565.328,380.619a13.844,13.844,0,0,1-1.492-.078,27.634,27.634,0,0,1-19.245-6.3c-7.085-5.966-11.1-15.609-11.932-28.671l1.492-.093c.8,12.641,4.631,21.937,11.4,27.627a26.587,26.587,0,0,0,18.208,5.966h.164a10.9,10.9,0,0,0,8.979-2.983c6.783-6.313,8.815-21.012,8.506-28.794-.373-8.767,2.793-33.854,6.563-38.829,3.3-4.359,5.347-24.006,5.37-24.2l.056-.559.552-.1c.034,0,3.255-.612,3.658-3.02.522-3.14,9.881-11.347,10.944-12.275l.973,1.119c-3.867,3.356-10.128,9.427-10.441,11.4-.455,2.73-3.128,3.774-4.307,4.1-.373,3.266-2.338,20.1-5.593,24.424-3.333,4.4-6.656,28.589-6.283,37.87.321,8.047-1.831,23.29-8.979,29.943A12.234,12.234,0,0,1,565.328,380.619Z" transform="translate(-355.272 -190.125)" fill="#353146"/>
    <g id="Group_6238" data-name="Group 6238" transform="translate(200.834 26.581)" opacity="0.1">
      <path id="Path_10775" data-name="Path 10775" d="M783,149.654c.612-2.26,1.35-4.534,1.865-6.824C784.249,145.131,783.507,147.394,783,149.654Z" transform="translate(-713.097 -138.016)"/>
      <path id="Path_10776" data-name="Path 10776" d="M659.2,159.315c-.746-1.637-.347-3.531-.332-5.329s-.649-3.9-2.379-4.4c-3.46-.966-5.847,5.489-9.248,4.322-2.61-.891-1.92-4.848-3.427-7.133-1.19-1.812-3.572-2.319-5.422-3.453-3.945-2.42-3.826-6.291-5.653-9.952-1.92-3.841-5.966-2.707-9.486-.44-2.674,1.723-4.974,4.031-7.831,5.407a19.427,19.427,0,0,1-7.991,1.685c-3.337.078-6.969-.515-9.263-2.938a8.658,8.658,0,0,1-2.04-7.159c-.063.175-.119.351-.175.526a8.959,8.959,0,0,0,1.719,8.614c2.293,2.424,5.925,3.013,9.262,2.938a19.444,19.444,0,0,0,7.995-1.685c2.864-1.38,5.164-3.684,7.831-5.407,3.52-2.267,7.57-3.4,9.486.44,1.827,3.662,1.712,7.532,5.653,9.952,1.865,1.119,4.232,1.641,5.426,3.453,1.492,2.293.831,6.242,3.427,7.133,3.4,1.163,5.783-5.288,9.244-4.322,1.73.485,2.4,2.61,2.379,4.4s-.406,3.692.332,5.329c2.867-.131,6.414-.746,7.245-3.505a4.015,4.015,0,0,0,.157-1.219C664.9,158.662,661.78,159.2,659.2,159.315Z" transform="translate(-595.536 -129.92)"/>
    </g>
    <path id="Path_10777" data-name="Path 10777" d="M843.608,384.506l4.329,4.579s3.464,25.233,5.194,27.594,5.817,11.75,1.98,18.8c0,0-1.238,3.837-.5,5.444s-5.563,9.65-5.563,9.65-8.289,7.42-10.023,8.535-10.885,10.019-13.976,10.143-4.1,3.96-4.1,3.96l-17.444.619s-9.635-.5-11.731.858c0,0,1.119-14.721-9.647-24.372l13.73-4.948s5.2-2.237,6.805-4.575a8.4,8.4,0,0,1,4.1-3.091s3.833-2.722,3.956-4.206,4.687-3.3,4.687-3.3l-2.584-22.056,1.361-36.617s4.329-30.681,13.484-28.947S843.608,384.506,843.608,384.506Z" transform="translate(-511.718 -236.651)" opacity="0.1"/>
    <path id="Path_10778" data-name="Path 10778" d="M847.608,384.506l4.329,4.579s3.464,25.233,5.194,27.594,5.817,11.75,1.98,18.8c0,0-1.234,3.837-.492,5.444s-5.567,9.65-5.567,9.65-8.289,7.42-10.023,8.535-10.885,10.019-13.976,10.143-4.1,3.96-4.1,3.96l-17.444.619s-9.643-.5-11.731.858c0,0,1.119-14.721-9.647-24.372l13.73-4.948s5.2-2.237,6.805-4.575a8.4,8.4,0,0,1,4.1-3.091s3.833-2.722,3.956-4.206,4.687-3.3,4.687-3.3l-2.584-22.056,1.361-36.617s4.329-30.681,13.484-28.947S847.608,384.506,847.608,384.506Z" transform="translate(-514.226 -236.651)" fill="#e8f5ff"/>
    <path id="Path_10779" data-name="Path 10779" d="M907.84,552.176s12.741-3.356,16.083.746S907.84,552.176,907.84,552.176Z" transform="translate(-590.553 -367.331)" opacity="0.1"/>
    <path id="Path_10780" data-name="Path 10780" d="M899.88,569.44c4.329,3.032,17.69,3.155,17.69,3.155Z" transform="translate(-585.561 -378.968)" opacity="0.1"/>
    <path id="Path_10781" data-name="Path 10781" d="M917.46,610.08c.373.123,9.184,9.527,12.883,6.682S917.46,610.08,917.46,610.08Z" transform="translate(-596.585 -404.454)" opacity="0.1"/>
    <path id="Path_10782" data-name="Path 10782" d="M599.22,398.42s2.588,17.816,1.313,25.073,3.378,16.247,3.378,16.247Z" transform="translate(-397.012 -271.719)" opacity="0.1"/>
    <path id="Path_10783" data-name="Path 10783" d="M386.079,412.147c-2.983,2.338-5.161,7.872-6.738,13.953a150.1,150.1,0,0,0-3.651,22.91s-23.753-5.444-22.023-7.916c1.089-1.555-.373-13.271-1.592-21.765-.727-5.019-1.376-8.916-1.376-8.916S394.246,405.711,386.079,412.147Z" transform="translate(-241.162 -278.201)" fill="#ffccd0"/>
    <path id="Path_10784" data-name="Path 10784" d="M386.079,410.819c-2.983,2.342-5.161,7.872-6.738,13.953A27.407,27.407,0,0,1,352.076,418c-.727-5.023-1.376-8.919-1.376-8.919S394.246,404.387,386.079,410.819Z" transform="translate(-241.162 -277.369)" opacity="0.1"/>
    <path id="Path_10785" data-name="Path 10785" d="M387.4,334.589a27.474,27.474,0,1,1-6.044-17.183A27.474,27.474,0,0,1,387.4,334.589Z" transform="translate(-229.717 -214.466)" fill="#ffccd0"/>
    <path id="Path_10786" data-name="Path 10786" d="M522.461,792.638H514.63l-.66-13.83-.69-14.315s1.779-.265,4.613-.66l1.145-.153h.093c.619,2.9,1.231,5.888,1.82,8.867a91.119,91.119,0,0,1,1.525,16.034v1.1C522.5,790.673,522.475,791.669,522.461,792.638Z" transform="translate(-343.118 -500.779)" opacity="0.1"/>
    <path id="Path_10787" data-name="Path 10787" d="M368.713,620.375h-98.2c.425-.966.708-1.551.708-1.551s7.857-34.373,11.85-48.915a.19.19,0,0,0,0-.037,58.168,58.168,0,0,1,1.8-5.836h0a2,2,0,0,1,.175-.373c1.976-3.214,4.452-6.678.988-11.627s-2.237-26.721-2.237-26.721,4.206-18.559,8.658-28.455a13.312,13.312,0,0,1,2.826-4.1,11.559,11.559,0,0,1,1.238-1.052h0a10.874,10.874,0,0,1,1.037-.69l.071-.045a14.96,14.96,0,0,1,6.089-1.891,17.374,17.374,0,0,1,4.568.127,68.177,68.177,0,0,1,17.593,4.848c12.451,5.47,16.221,12.8,16.3,12.954h0l.03.063c.5,1.167,7.808,18.23,10.441,26.191.682,2.073,1.055,3.531.906,3.93-.746,1.976,5.69,26.717,5.69,26.717s2.983,11.932,5.966,25.919c.131.582.254,1.163.373,1.753.533,2.539,1.063,5.127,1.574,7.711a90.644,90.644,0,0,1,1.525,16.146Q368.762,617.973,368.713,620.375Z" transform="translate(-190.874 -328.516)" fill="#ff748e"/>
    <path id="Path_10788" data-name="Path 10788" d="M346.742,465s-6.775-2.61-6.693,1.35,1.652,5.854,1.156,6.432.246,4.042.246,4.042,9.154,0,13.361,1.894,19.711,5.69,21.691,6.846,9.322,6.339,9.322,6.339l.66-9.814a55.99,55.99,0,0,0-20.039-9.482C353.995,469.393,346.742,465,346.742,465Z" transform="translate(-234.482 -312.944)" opacity="0.1"/>
    <path id="Path_10789" data-name="Path 10789" d="M346.742,463.671s-6.775-2.61-6.693,1.35,1.652,5.854,1.156,6.432.246,4.042.246,4.042,9.154,0,13.361,1.9,19.711,5.69,21.691,6.842,9.322,6.339,9.322,6.339l.667-9.785a55.99,55.99,0,0,0-20.039-9.482C354,468.093,346.742,463.671,346.742,463.671Z" transform="translate(-234.482 -312.11)" fill="#ff748e"/>
    <path id="Path_10790" data-name="Path 10790" d="M412.85,528.43s12.947,14.017,12.287,17.9S412.85,528.43,412.85,528.43Z" transform="translate(-280.137 -353.25)" opacity="0.1"/>
    <path id="Path_10791" data-name="Path 10791" d="M435.92,741.85s-5.03,10.228-2.308,9.568S435.92,741.85,435.92,741.85Z" transform="translate(-292.65 -487.089)" fill="none"/>
    <path id="Path_10792" data-name="Path 10792" d="M334.4,664.22s-9.49,8.744-12.287,9.24,2.144,2.144,5.358.828,10.068-4.78,10.068-4.78Z" transform="translate(-222.715 -438.406)" opacity="0.1"/>
    <path id="Path_10793" data-name="Path 10793" d="M479.623,791.158H457.493c-3.095-2.685-6.022-5.172-7.886-6.667a25.737,25.737,0,0,1-6.507-8.752c-.31-.645-.578-1.249-.805-1.8a29.978,29.978,0,0,1-1.074-2.89l16.388-9.732a25.628,25.628,0,0,1,2.547,2.491l.2.227a6.73,6.73,0,0,1,1.782,3.293c.082,1.163,3.319,5.664,6.626,9.986,3.356,4.4,6.794,8.6,7.021,8.882h0s.567.772,1.492,1.958C477.927,789.014,478.732,790.043,479.623,791.158Z" transform="translate(-297.928 -499.299)" fill="#ffccd0"/>
    <path id="Path_10794" data-name="Path 10794" d="M381.38,317.43a15.985,15.985,0,0,0-1.6,5.593c-.295,5.705.183,18.462-6.134,21.325-3.129,1.41-6.477-1.685-9.908-1.76a8.055,8.055,0,0,0-6.238,3.472,37.563,37.563,0,0,0-3.535,6.5,44.365,44.365,0,0,1-3.427,5.78,14.537,14.537,0,0,1-1.268,1.6,27.467,27.467,0,1,1,32.105-42.49Z" transform="translate(-229.74 -214.489)" opacity="0.1"/>
    <path id="Path_10795" data-name="Path 10795" d="M330.075,302.866c-.3,5.705.183,18.462-6.138,21.322-3.129,1.41-6.477-1.682-9.908-1.756-2.469-.056-4.728,1.514-6.238,3.468a37.316,37.316,0,0,0-3.535,6.5,44.461,44.461,0,0,1-3.427,5.78,8.391,8.391,0,0,1-2.8,2.793c-2.058,1.074-4.553.47-6.76-.22q-4.3-1.354-8.465-3.05a8.538,8.538,0,0,0,.1-1.268c-.082.157-.172.3-.261.459l-.175.306c-.317.559-.626,1.119-.91,1.693-.108.22-.213.448-.306.675a8.578,8.578,0,0,0-.7,2.67c-.19,2.487,1.037,4.848,2.125,7.085,4.188,8.655,6.775,18.775,3.624,27.855-1.365,3.949-3.729,7.458-5.455,11.272a36.42,36.42,0,0,0-2.547,21.545c.861,4.519,2.588,8.994,2.163,13.577-.746,7.887-7.547,13.756-14.36,17.79-3.68,2.17-8.185,4.1-12.093,2.386,2.491-2.909,3.132-6.932,3.669-10.728q2.2-15.531,4.419-31.076.884-6.186,1.764-12.372c1.1-7.749,2.207-15.583,1.521-23.38-.5-5.746-1.909-11.847.582-17.048,1.316-2.756,3.662-5.038,4.393-8.006.6-2.413.041-4.978.436-7.435a12.656,12.656,0,0,1,1.089-3.222,15.829,15.829,0,0,1,2.5-3.811,4.266,4.266,0,0,1-2.5-1.525c1.6-1.044,1.846-3.4,1.119-5.164a15.871,15.871,0,0,0-3.49-4.508c-1.309-1.395-2.569-3.02-2.733-4.922-.317-3.621,3.3-6.425,3.938-10,.645-3.636-1.905-7.171-1.7-10.851.239-4.449,4.325-7.681,8.36-9.557a38.034,38.034,0,0,1,19.494-3.356c5.437.515,10.7,2.2,16.12,2.849,3.27.373,6.585.41,9.833.984a15.8,15.8,0,0,1,8.789,4.169C337.637,291.071,330.418,296.243,330.075,302.866Z" transform="translate(-180.526 -195.339)" fill="#ffe0d0"/>
    <path id="Path_10796" data-name="Path 10796" d="M369.282,640.547c-1.9-.824-5.362-.332-11.3-2.14s-7.085-9.982-7.085-9.982V628.4h0c-.071-.186-.623-1.4-4.359-5.66-4.128-4.7-13.051-28.451-13.051-28.451s-7.913-8.5-7.663-11.63-1.406-11.466-1.242-20.788,17.813-15.5,17.813-15.5c33.981-6.022,25.979,33.153,25.073,36.121s3.8,10.985,3.8,10.985c-.664,3.49,2.722,8.893,2.722,8.893s.82,4.78.988,6.6a1.122,1.122,0,0,0,.056.246c.544,1.711,4.982,3.263,6.787,4.206,1.9.992,8,9.65,8,9.65C391.133,629.42,371.176,641.382,369.282,640.547Z" transform="translate(-224.775 -364.103)" opacity="0.1"/>
    <path id="Path_10797" data-name="Path 10797" d="M371.938,636.578c-1.9-.828-5.362-.332-11.3-2.144s-7.085-9.978-7.085-9.978v-.026h0c-.067-.19-.623-1.4-4.359-5.66-4.128-4.7-13.051-28.455-13.051-28.455s-7.913-8.494-7.667-11.627-1.4-11.466-1.238-20.781,17.8-15.493,17.8-15.493c33.981-6.022,25.979,33.153,25.073,36.121s3.8,10.985,3.8,10.985c-.664,3.49,2.722,8.893,2.722,8.893s.82,4.78.992,6.6a.939.939,0,0,0,.052.246c.544,1.712,4.982,3.263,6.79,4.206,1.894.988,8,9.65,8,9.65C393.793,625.459,373.836,637.421,371.938,636.578Z" transform="translate(-226.443 -361.625)" fill="#ff748e"/>
    <path id="Path_10798" data-name="Path 10798" d="M376.8,598.32s14.845,15.661,18.719,15.661S376.8,598.32,376.8,598.32Z" transform="translate(-257.53 -397.079)" opacity="0.1"/>
    <path id="Path_10799" data-name="Path 10799" d="M416.213,743.3c-1.9-.828-5.362-.332-11.3-2.144s-7.085-9.978-7.085-9.978v-.026h0c3.934-2.61,13.9-9.982,17.824-12.678a27.508,27.508,0,0,0,6.339-6.511c.544,1.712,4.982,3.263,6.79,4.206,1.894.988,8,9.65,8,9.65C438.068,732.178,418.111,744.14,416.213,743.3Z" transform="translate(-270.718 -468.345)" fill="#ff748e"/>
    <g id="Group_6239" data-name="Group 6239" transform="translate(73.484 88.45)" opacity="0.1">
      <path id="Path_10800" data-name="Path 10800" d="M302,406.292c.019.03.045.056.067.086.112-.142.227-.283.347-.418a2.782,2.782,0,0,1-.414.332Z" transform="translate(-284.105 -364.898)"/>
      <path id="Path_10801" data-name="Path 10801" d="M280.556,439.608c.157-2.069,1.264-3.893,2.3-5.713-.679-.261-1.357-.526-2.029-.8a8.447,8.447,0,0,0,.1-1.264c-1.048,1.864-2.189,3.7-2.349,5.8-.19,2.491,1.037,4.848,2.125,7.085,4.191,8.651,6.775,18.771,3.624,27.854-1.369,3.945-3.729,7.458-5.455,11.272a36.4,36.4,0,0,0-2.543,21.542c.854,4.523,2.584,8.994,2.159,13.577-.746,7.887-7.543,13.756-14.36,17.787-2.785,1.648-6.041,3.158-9.154,3.05a11.275,11.275,0,0,1-.962,1.324c3.912,1.727,8.412-.216,12.093-2.394,6.82-4.027,13.633-9.881,14.378-17.783.425-4.583-1.305-9.054-2.163-13.577a36.434,36.434,0,0,1,2.536-21.542c1.715-3.811,4.1-7.327,5.455-11.272,3.151-9.083.563-19.2-3.624-27.855C281.6,444.445,280.366,442.1,280.556,439.608Z" transform="translate(-254.01 -381.121)"/>
      <path id="Path_10802" data-name="Path 10802" d="M380.029,296.884a10.776,10.776,0,0,0-1.178-1.044c4.519,5.862-2.006,10.844-2.331,17.153-.291,5.705.186,18.465-6.134,21.322-3.125,1.413-6.477-1.682-9.9-1.756-2.472-.052-4.732,1.518-6.242,3.472a37.16,37.16,0,0,0-3.531,6.5,44.652,44.652,0,0,1-3.431,5.78,8.181,8.181,0,0,1-2.8,2.8c-2.051,1.07-4.545.47-6.757-.224q-3.225-1.014-6.391-2.237a8.061,8.061,0,0,1-.1,1.16q4.173,1.7,8.468,3.05c2.207.694,4.7,1.294,6.757.224a8.39,8.39,0,0,0,2.8-2.8,43.923,43.923,0,0,0,3.427-5.776,37.206,37.206,0,0,1,3.535-6.5c1.514-1.954,3.77-3.52,6.238-3.468,3.431.075,6.783,3.17,9.908,1.756,6.32-2.856,5.839-15.616,6.134-21.322C378.844,308.332,386.063,303.163,380.029,296.884Z" transform="translate(-302.436 -295.84)"/>
    </g>
    <path id="Path_10803" data-name="Path 10803" d="M312.532,423.032c-.317.559-.626,1.119-.91,1.693-.108.22-.213.448-.306.675-1.954-1.969-6.712-6.648-9.367-8.1a15.906,15.906,0,0,1,2.5-3.811S310.776,416.835,312.532,423.032Z" transform="translate(-210.59 -281.17)" opacity="0.1"/>
    <path id="Path_10804" data-name="Path 10804" d="M312.708,421.065c-1.465-6.634-8.259-10.225-8.259-10.225a15.829,15.829,0,0,0-2.5,3.811c2.8,1.533,7.961,6.671,9.673,8.412Z" transform="translate(-210.59 -279.508)" fill="#ff748e"/>
  </g>
</svg>
